<svg width="128" height="128" viewBox="0 0 128 128" fill="none" xmlns="http://www.w3.org/2000/svg">
<g filter="url(#filter0_i_914_30)">
<rect x="19" y="19" width="103" height="104" rx="24" fill="url(#paint0_linear_914_30)"/>
<rect x="19" y="19" width="103" height="104" rx="24" fill="url(#paint1_linear_914_30)"/>
</g>
<path fill-rule="evenodd" clip-rule="evenodd" d="M56 69L68 64.5L100 123H83L56 69Z" fill="#C89C2D"/>
<path fill-rule="evenodd" clip-rule="evenodd" d="M18.4835 78.9991L121.483 41.4879V51.7183L70.4361 70.1846L98 118.988H80.9835L58.5 75L18.4835 89.2294" fill="#FECB49"/>
<g opacity="0.580799" filter="url(#filter1_f_914_30)">
<path d="M71.3888 111.571C84.4124 111.571 94.9702 106.455 94.9702 100.143C94.9702 93.831 84.4124 88.7143 71.3888 88.7143C58.3651 88.7143 47.8074 93.831 47.8074 100.143C47.8074 106.455 58.3651 111.571 71.3888 111.571Z" fill="url(#paint2_radial_914_30)"/>
</g>
<g style="mix-blend-mode:hard-light" filter="url(#filter2_dii_914_30)">
<path fill-rule="evenodd" clip-rule="evenodd" d="M90.066 38.214C85.2861 33.7546 78.6817 31 71.3887 31C64.0957 31 57.4914 33.7546 52.7115 38.214C47.95 42.6561 45 48.7915 45 55.5714C45 58.996 45.7524 62.2566 47.1364 65.2802C47.6817 66.9504 48.1633 68.2382 48.5831 69.1428C51.6852 75.826 54.7793 81.0345 57.0696 84.89L57.0745 84.8981C57.4909 85.5992 57.8809 86.2557 58.2397 86.8683C61.0921 91.7391 65.2719 97.975 70.778 105.577C76.9798 97.6737 81.494 91.4333 84.3195 86.8569C84.557 86.4723 84.8063 86.071 85.0669 85.6516L85.07 85.6466C87.4066 81.8854 90.6469 76.6696 94.2545 69.1365C94.8452 67.9031 95.6482 65.7445 96.6618 62.6629C97.3871 60.4198 97.7774 58.0382 97.7774 55.5714C97.7774 48.7915 94.8275 42.6561 90.066 38.214ZM84.8639 57.8571C84.8639 64.8001 78.8309 70.4286 71.3888 70.4286C63.9467 70.4286 57.9137 64.8001 57.9137 57.8571C57.9137 50.9141 63.9467 45.2857 71.3888 45.2857C78.8309 45.2857 84.8639 50.9141 84.8639 57.8571Z" fill="#F0F0F2"/>
</g>
<defs>
<filter id="filter0_i_914_30" x="19" y="19" width="103" height="104" filterUnits="userSpaceOnUse" color-interpolation-filters="sRGB">
<feFlood flood-opacity="0" result="BackgroundImageFix"/>
<feBlend mode="normal" in="SourceGraphic" in2="BackgroundImageFix" result="shape"/>
<feColorMatrix in="SourceAlpha" type="matrix" values="0 0 0 0 0 0 0 0 0 0 0 0 0 0 0 0 0 0 127 0" result="hardAlpha"/>
<feOffset dy="-4"/>
<feComposite in2="hardAlpha" operator="arithmetic" k2="-1" k3="1"/>
<feColorMatrix type="matrix" values="0 0 0 0 0 0 0 0 0 0 0 0 0 0 0 0 0 0 0.1 0"/>
<feBlend mode="normal" in2="shape" result="effect1_innerShadow_914_30"/>
</filter>
<filter id="filter1_f_914_30" x="37.8074" y="78.7143" width="67.1628" height="42.8571" filterUnits="userSpaceOnUse" color-interpolation-filters="sRGB">
<feFlood flood-opacity="0" result="BackgroundImageFix"/>
<feBlend mode="normal" in="SourceGraphic" in2="BackgroundImageFix" result="shape"/>
<feGaussianBlur stdDeviation="5" result="effect1_foregroundBlur_914_30"/>
</filter>
<filter id="filter2_dii_914_30" x="41" y="27" width="60.7775" height="86.5765" filterUnits="userSpaceOnUse" color-interpolation-filters="sRGB">
<feFlood flood-opacity="0" result="BackgroundImageFix"/>
<feColorMatrix in="SourceAlpha" type="matrix" values="0 0 0 0 0 0 0 0 0 0 0 0 0 0 0 0 0 0 127 0" result="hardAlpha"/>
<feOffset dy="4"/>
<feGaussianBlur stdDeviation="2"/>
<feComposite in2="hardAlpha" operator="out"/>
<feColorMatrix type="matrix" values="0 0 0 0 0 0 0 0 0 0 0 0 0 0 0 0 0 0 0.25 0"/>
<feBlend mode="normal" in2="BackgroundImageFix" result="effect1_dropShadow_914_30"/>
<feBlend mode="normal" in="SourceGraphic" in2="effect1_dropShadow_914_30" result="shape"/>
<feColorMatrix in="SourceAlpha" type="matrix" values="0 0 0 0 0 0 0 0 0 0 0 0 0 0 0 0 0 0 127 0" result="hardAlpha"/>
<feOffset dy="-4"/>
<feGaussianBlur stdDeviation="2"/>
<feComposite in2="hardAlpha" operator="arithmetic" k2="-1" k3="1"/>
<feColorMatrix type="matrix" values="0 0 0 0 0.176471 0 0 0 0 0.176471 0 0 0 0 0.176471 0 0 0 0.25 0"/>
<feBlend mode="normal" in2="shape" result="effect2_innerShadow_914_30"/>
<feColorMatrix in="SourceAlpha" type="matrix" values="0 0 0 0 0 0 0 0 0 0 0 0 0 0 0 0 0 0 127 0" result="hardAlpha"/>
<feOffset dy="4"/>
<feGaussianBlur stdDeviation="2"/>
<feComposite in2="hardAlpha" operator="arithmetic" k2="-1" k3="1"/>
<feColorMatrix type="matrix" values="0 0 0 0 0.941176 0 0 0 0 0.941176 0 0 0 0 0.94902 0 0 0 0.2 0"/>
<feBlend mode="normal" in2="effect2_innerShadow_914_30" result="effect3_innerShadow_914_30"/>
</filter>
<linearGradient id="paint0_linear_914_30" x1="70.5" y1="19" x2="70.5" y2="123" gradientUnits="userSpaceOnUse">
<stop stop-color="#56BFA6"/>
<stop offset="1" stop-color="#49D05E"/>
</linearGradient>
<linearGradient id="paint1_linear_914_30" x1="70.5" y1="19" x2="70.5" y2="123" gradientUnits="userSpaceOnUse">
<stop stop-color="#2D2D2D" stop-opacity="0"/>
<stop offset="1" stop-color="#2D2D2D" stop-opacity="0.2"/>
</linearGradient>
<radialGradient id="paint2_radial_914_30" cx="0" cy="0" r="1" gradientUnits="userSpaceOnUse" gradientTransform="translate(57.5661 100.145) scale(23.5814 24)">
<stop/>
<stop offset="1" stop-opacity="0"/>
</radialGradient>
</defs>
</svg>
